<?xml version="1.0" encoding="UTF-8"?>
<svg version="1.1" xmlns="http://www.w3.org/2000/svg" viewBox="0 0 32 32" role="img" aria-label="VREAD favicon" preserveAspectRatio="xMidYMid meet">
  <title>VREAD</title>
  <!-- Fond transparent pour favicon -->
  <rect width="32" height="32" fill="transparent"/>
  <!-- Logo VREAD simplifié pour petite taille -->
  <g transform="scale(0.031)" fill="#B05A34" stroke="none">
    <path d="M153 796 l7 -7 -9 -14 c-17 -25 -78 -132 -178 -311 -12 -22 -52 -91 -99 -172 -9 -15 -24 -43 -34 -62 -10 -19 -27 -49 -38 -67 -40 -68 -201 -350 -218 -383 -10 -19 -19 -35 -20 -35 -4 0 -27 38 -54 86 -45 82 -120 210 -210 363 -44 74 -81 138 -83 144 -2 8 -2 12 4 23 9 17 22 24 55 28 22 3 32 3 78 -3 60 -8 75 -13 89 -33 22 -29 121 -204 121 -212 0 -2 2 -2 3 -2 2 0 3 2 3 6 0 3 1 7 3 9 2 2 4 8 7 15 7 21 13 32 100 188 34 60 47 85 64 116 107 201 170 277 258 313 36 15 61 19 104 20 38 0 40 0 46 -7z m914 -172 c7 -5 38 -38 68 -75 30 -37 74 -88 97 -115 48 -56 55 -67 55 -83 0 -15 -7 -28 -45 -85 -18 -26 -42 -64 -55 -85 -49 -80 -125 -202 -133 -212 -30 -40 -73 -73 -116 -91 -12 -5 -34 -15 -49 -22 -15 -7 -28 -13 -29 -13 -1 0 -14 -6 -29 -13 -15 -7 -33 -15 -39 -18 -7 -3 -20 -9 -30 -13 -9 -4 -32 -14 -50 -22 -18 -8 -45 -20 -59 -27 -14 -7 -50 -23 -78 -34 -29 -12 -69 -31 -90 -41 -21 -10 -39 -18 -40 -18 -1 0 -10 -4 -21 -9 -75 -35 -88 -41 -90 -41 -1 0 -7 -3 -14 -7 -7 -4 -27 -13 -44 -20 -17 -7 -39 -17 -49 -21 -31 -14 -129 -59 -130 -59 -1 0 -13 -5 -28 -12 -14 -6 -56 -26 -93 -43 -37 -17 -73 -33 -80 -36 -7 -3 -27 -12 -45 -20 -18 -8 -44 -20 -58 -26 -14 -6 -26 -11 -28 -11 -7 0 -47 -19 -64 -31 -16 -11 -26 -6 -39 25 -16 23 -101 152 -135 204 -17 26 -38 58 -46 71 -32 48 -99 156 -121 191 -19 32 -23 40 -23 51 0 22 3 24 106 69 19 8 43 18 52 23 13 6 19 7 21 4 2 -2 16 -29 31 -60 15 -31 56 -113 91 -182 35 -69 64 -128 65 -132 1 -4 3 -7 5 -7 3 0 4 2 38 88 14 35 28 68 30 73 3 5 5 10 5 12 0 1 6 14 12 29 7 14 16 36 20 48 9 25 38 94 71 169 54 123 61 139 78 158 10 11 39 31 55 38 6 2 31 14 56 24 25 12 58 26 72 32 15 6 58 26 96 43 38 17 80 36 93 42 31 13 50 22 99 45 23 10 51 23 64 29 13 5 44 20 70 31 25 11 66 30 91 41 25 11 124 56 220 99 97 44 188 85 203 91 50 23 98 27 121 12z"/>
  </g>
</svg>